<?xml version="1.0" encoding="utf-8"?>
<!-- Generator: Adobe Illustrator 27.5.0, SVG Export Plug-In . SVG Version: 6.00 Build 0)  -->
<svg version="1.1" xmlns="http://www.w3.org/2000/svg" xmlns:xlink="http://www.w3.org/1999/xlink" x="0px" y="0px"
	 viewBox="0 0 500 500" style="enable-background:new 0 0 500 500;" xml:space="preserve">
<g id="BACKGROUND">
	<rect style="fill:#FFFFFF;" width="500" height="500"/>
</g>
<g id="OBJECTS">
	<g>
		<path style="fill:#DBECF5;" d="M167.291,358.696c0,0-71.348-37.305-75.258-83.568c-3.91-46.262,38.118-82.404,33.231-101.473
			s-46.588-79.813,4.27-117.784c53.595-40.015,109.106,28.747,133.54,30.012c24.434,1.264,95.783-13.689,152.47,7.96
			c56.688,21.648,76.235,93.539,62.552,149.467C464.413,299.237,431.182,394.698,167.291,358.696z"/>
		<g>
			<path d="M23.367,390.329c4.073,0,8.146,0,12.219,0c10.985,0,21.971,0,32.956,0c16.287,0,32.573,0,48.86,0
				c19.87,0,39.741,0,59.611,0c21.688,0,43.376,0,65.063,0c22.041,0,44.082,0,66.123,0c20.411,0,40.822,0,61.233,0
				c17.31,0,34.621,0,51.931,0c12.445,0,24.891,0,37.336,0c5.879,0,11.769,0.106,17.648,0c0.257-0.005,0.514,0,0.772,0
				c1.93,0,1.934-3,0-3c-4.073,0-8.146,0-12.219,0c-10.985,0-21.971,0-32.956,0c-16.287,0-32.573,0-48.86,0
				c-19.871,0-39.741,0-59.611,0c-21.688,0-43.376,0-65.063,0c-22.041,0-44.082,0-66.123,0c-20.411,0-40.822,0-61.233,0
				c-17.31,0-34.621,0-51.931,0c-12.445,0-24.891,0-37.336,0c-5.879,0-11.769-0.106-17.648,0c-0.257,0.005-0.514,0-0.771,0
				C21.436,387.329,21.433,390.329,23.367,390.329L23.367,390.329z"/>
		</g>
		<g>
			<path d="M394.911,412.918c8.841,0,17.681,0,26.522,0c1.248,0,2.495,0,3.743,0c1.93,0,1.934-3,0-3c-8.841,0-17.681,0-26.522,0
				c-1.248,0-2.495,0-3.743,0C392.98,409.918,392.977,412.918,394.911,412.918L394.911,412.918z"/>
		</g>
		<g>
			<path d="M65.7,441.598c3.236,0,6.471,0,9.707,0c0.458,0,0.915,0,1.373,0c1.93,0,1.934-3,0-3c-3.236,0-6.471,0-9.707,0
				c-0.458,0-0.915,0-1.373,0C63.77,438.598,63.766,441.598,65.7,441.598L65.7,441.598z"/>
		</g>
		<path style="fill:#DBECF5;" d="M130.167,435.526c0,0-21.068-1.583-17.593-11.76c3.475-10.177,23.891-9.349,69.502-10.849
			L130.167,435.526z"/>
		<g>
			<polygon style="fill:#38273F;" points="129.516,431.182 130.167,435.526 279.686,455.291 324.339,426.078 324.339,421.286 
				279.686,450.078 			"/>
			<polygon style="fill:#4045BC;" points="279.686,450.078 324.339,421.286 173.172,403.164 129.516,431.182 			"/>
		</g>
		<g>
			<polygon style="fill:#1C1421;" points="302.348,34.368 235.724,69.88 291.108,112.884 375.814,88.776 			"/>
			<path style="fill:#E37565;" d="M260.049,129.717c0,0-5.43,30.842,15.638,44.525c21.068,13.683,47.348-3.258,56.905-15.855
				c0,0,6.082,4.778,13.249-2.606c7.167-7.385,7.819-23.674-6.733-20.633c0,0-42.787-8.471-49.52-33.014
				C289.588,102.133,284.375,120.16,260.049,129.717z"/>
			<path d="M260.049,129.717c24.326-9.557,29.538-27.584,29.538-27.584c6.733,24.543,49.52,33.014,49.52,33.014
				c1.083-0.226,2.071-0.334,2.989-0.358c0.014-0.005,0.03-0.01,0.03-0.01l0.005,0.01c1.794-0.042,3.287,0.272,4.49,0.874
				c0.597-4.749,1.067-12.115,0.087-20.932c-1.737-15.638-25.412-25.629-56.47-16.289c0,0-14.335-7.602-28.67-3.258
				c-14.335,4.344-25.944,22.349-2.112,41.256C259.588,132.365,260.049,129.717,260.049,129.717z"/>
			<g>
				<path d="M347.292,143.834c-0.005-0.845-0.262-1.763-0.712-2.475c-0.94-1.488-2.674-1.994-4.353-1.689
					c-1.482,0.27-2.808,1.26-3.829,2.324c-1.368,1.426-2.37,3.168-3.05,5.016c-0.891,2.422-1.083,5.008-0.691,7.549
					c0.093,0.601,0.847,0.933,1.384,0.786c0.642-0.176,0.879-0.781,0.786-1.384c-0.514-3.334,0.41-6.942,2.49-9.605
					c0.71-0.909,1.758-1.898,2.717-2.291c0.895-0.367,1.952-0.381,2.558,0.354c-0.108-0.131,0.103,0.169,0.128,0.212
					c0.031,0.054,0.154,0.316,0.118,0.23c0.002,0.005,0.123,0.397,0.156,0.554c0.018,0.085,0.03,0.17,0.046,0.255
					c0.011,0.058-0.015-0.266-0.009-0.038c0.002,0.068,0.011,0.135,0.011,0.203C345.051,145.282,347.301,145.285,347.292,143.834
					L347.292,143.834z"/>
			</g>
			<g>
				<path d="M285.462,141.853c0.047,0.217-0.01-0.13-0.009-0.088c0.004,0.179,0.024,0.356,0.021,0.536
					c-0.011,0.538-0.103,0.953-0.311,1.534c-0.617,1.725-2.113,2.748-3.178,4.157c-1.539,2.035-2.249,4.968-0.397,7.049
					c1.246,1.4,3.231,1.822,5.012,1.973c1.443,0.122,1.435-2.129,0-2.25c-0.899-0.076-1.84-0.241-2.636-0.689
					c-0.297-0.167-0.509-0.322-0.743-0.578c-0.094-0.103-0.094-0.096-0.198-0.264c-0.025-0.04-0.201-0.396-0.148-0.265
					c-0.433-1.071-0.003-2.281,0.708-3.358c0.482-0.73,1.142-1.273,1.731-1.911c0.822-0.89,1.487-1.895,1.929-3.024
					c0.412-1.053,0.632-2.296,0.39-3.42C287.327,139.84,285.158,140.439,285.462,141.853L285.462,141.853z"/>
			</g>
			<g>
				<path d="M291.108,165.321c1.309,0.06,2.67-0.133,3.94-0.423c2.542-0.581,4.945-1.848,6.541-3.951
					c1.122-1.479,1.668-3.232,1.883-5.058c0.071-0.604-0.568-1.125-1.125-1.125c-0.667,0-1.054,0.519-1.125,1.125
					c-0.16,1.362-0.596,2.531-1.378,3.656c-0.042,0.061-0.086,0.121-0.131,0.179c0.103-0.134-0.011,0.011-0.028,0.031
					c-0.104,0.125-0.21,0.248-0.321,0.367c-0.204,0.22-0.421,0.428-0.648,0.625c-0.105,0.091-0.212,0.18-0.322,0.264
					c0.162-0.125-0.188,0.13-0.229,0.158c-0.237,0.162-0.481,0.313-0.731,0.453c-0.245,0.137-0.496,0.264-0.751,0.382
					c-0.059,0.027-0.119,0.054-0.178,0.08c-0.158,0.071,0.16-0.065,0.001,0c-0.133,0.054-0.267,0.107-0.402,0.156
					c-0.486,0.179-0.984,0.327-1.488,0.449c-0.465,0.112-0.933,0.191-1.405,0.268c-0.154,0.025,0.231-0.028,0.079-0.01
					c-0.048,0.006-0.095,0.012-0.143,0.018c-0.092,0.01-0.183,0.021-0.275,0.031c-0.187,0.019-0.375,0.035-0.562,0.048
					c-0.4,0.027-0.804,0.046-1.205,0.028C289.661,163.005,289.664,165.255,291.108,165.321L291.108,165.321z"/>
			</g>
			<g>
				<path d="M278.077,123.927c-3.141,0.075-6.305,1.639-8.155,4.173c-0.869,1.19-1.389,2.645-1.6,4.096
					c-0.112,0.773,0.191,1.65,1.048,1.845c0.711,0.162,1.725-0.217,1.845-1.048c0.09-0.619,0.229-1.229,0.44-1.819
					c0.028-0.078,0.058-0.154,0.087-0.232c0.075-0.206,0.02,0.074-0.04,0.089c0.039-0.01,0.136-0.295,0.16-0.344
					c0.121-0.245,0.256-0.483,0.403-0.713c0.063-0.099,0.129-0.196,0.197-0.291c0.236-0.332-0.167,0.189,0.052-0.072
					c0.161-0.191,0.325-0.378,0.501-0.555c0.161-0.161,0.329-0.314,0.504-0.46c0.04-0.034,0.082-0.065,0.122-0.1
					c0.164-0.141-0.113,0.106-0.119,0.091c-0.007-0.021,0.282-0.203,0.313-0.224c0.345-0.235,0.709-0.443,1.084-0.626
					c0.095-0.046,0.191-0.089,0.287-0.134c0.299-0.139-0.345,0.135-0.043,0.017c0.194-0.076,0.388-0.15,0.586-0.216
					c0.59-0.198,1.194-0.336,1.807-0.439c0.285-0.048-0.055,0.009-0.162,0.02c0.053-0.005,0.105-0.013,0.158-0.019
					c0.094-0.011,0.189-0.02,0.283-0.028c0.081-0.006,0.161-0.012,0.242-0.014c0.784-0.019,1.537-0.676,1.5-1.5
					C279.541,124.631,278.917,123.907,278.077,123.927L278.077,123.927z"/>
			</g>
			<g>
				<path d="M305.5,128.665c0.084-0.018,0.17-0.033,0.255-0.047c0.165-0.027,0.574-0.059-0.084,0.007
					c0.126-0.012,0.252-0.031,0.378-0.044c0.744-0.074,1.497-0.084,2.242-0.017c0.096,0.009,0.191,0.02,0.286,0.03
					c0.371,0.039-0.372-0.063-0.01,0c0.243,0.042,0.485,0.086,0.724,0.145c0.223,0.054,0.444,0.118,0.662,0.191
					c0.11,0.037,0.218,0.082,0.328,0.12c0.12,0.042,0.133,0.122-0.163-0.071c0.066,0.043,0.154,0.068,0.226,0.102
					c0.205,0.097,0.405,0.204,0.598,0.323c0.103,0.063,0.202,0.133,0.303,0.199c0.208,0.137,0.007,0.12-0.068-0.059
					c0.02,0.048,0.134,0.109,0.172,0.141c0.192,0.164,0.374,0.341,0.541,0.53c0.034,0.039,0.067,0.079,0.102,0.118
					c0.202,0.227,0.035-0.044-0.039-0.056c0.069,0.011,0.219,0.316,0.252,0.368c0.082,0.131,0.159,0.264,0.23,0.401
					c0.04,0.077,0.077,0.156,0.116,0.233c0.012,0.027,0.025,0.053,0.037,0.08c0.064,0.145,0.049,0.108-0.045-0.111
					c0.092,0.079,0.154,0.417,0.188,0.527c0.054,0.172,0.101,0.346,0.143,0.522c0.044,0.186,0.082,0.373,0.113,0.561
					c0.013,0.081,0.051,0.448,0.009,0.034c0.012,0.113,0.025,0.226,0.035,0.339c0.043,0.493,0.049,0.988,0.035,1.483
					c-0.023,0.785,0.706,1.536,1.5,1.5c0.832-0.037,1.475-0.659,1.5-1.5c0.091-3.12-0.902-6.324-3.733-7.973
					c-1.782-1.038-3.963-1.337-5.996-1.182c-0.545,0.042-1.098,0.101-1.633,0.215c-0.768,0.165-1.287,1.105-1.048,1.845
					C303.917,128.427,304.677,128.842,305.5,128.665L305.5,128.665z"/>
			</g>
			<path d="M279.706,141.097c0,3.526-1.604,6.384-3.584,6.384c-1.979,0-3.584-2.858-3.584-6.384s1.604-6.384,3.584-6.384
				C278.101,134.712,279.706,137.571,279.706,141.097z"/>
			<path d="M309.837,141.554c0,3.526-1.605,6.384-3.584,6.384c-1.979,0-3.584-2.858-3.584-6.384c0-3.526,1.604-6.384,3.584-6.384
				C308.233,135.169,309.837,138.028,309.837,141.554z"/>
			<path style="fill:#D35352;" d="M263.117,148.721c-0.964,0-1.899,0.12-2.8,0.329c1.324,7.496,4.433,15.735,11.178,21.925
				c2.567-2.336,4.192-5.718,4.192-9.494C275.687,154.434,270.059,148.721,263.117,148.721z"/>
			<path style="fill:#D35352;" d="M332.533,158.462c-1.797-4.817-6.371-8.248-11.746-8.248c-6.942,0-12.57,5.713-12.57,12.76
				c0,4.474,2.272,8.403,5.704,10.681C321.908,169.46,328.607,163.607,332.533,158.462z"/>
			<path style="fill:#38273F;" d="M290.239,98.441c25.776-7.751,46.451-2.182,53.737,8.873l3.299-24.293
				c-37.878-32.796-79.273-12.163-79.273-12.163l-6.432,24.326C275.905,90.839,290.239,98.441,290.239,98.441z"/>
			<path style="fill:#E37565;" d="M278.091,175.645l-0.014,0.004v19.66c0,0,4.127,14.552,11.946,26.28
				c0,0,19.33-17.158,26.063-28.235v-20.893C304.895,178.94,290.732,182.385,278.091,175.645z"/>
			<g>
				<path d="M316.085,193.355v-20.893c-11.191,6.478-25.354,9.924-37.995,3.184C278.091,175.645,286.764,191.4,316.085,193.355z"/>
				<polygon points="278.091,175.645 278.077,175.65 278.077,175.658 				"/>
			</g>
			<path style="fill:#38273F;" d="M414.909,273.282c-3.041-25.195-7.385-34.751-40.398-51.692s-58.425-28.235-58.425-28.235
				c-6.733,11.077-26.063,28.235-26.063,28.235c-7.819-11.728-11.946-26.28-11.946-26.28s-64.289,29.321-78.624,46.262
				c-14.335,16.941-44.307,149.864-44.307,149.864h160.941c0,0-9.339,3.692-10.86,8.905c0,0,4.561-2.172,8.036-2.606
				c3.475-0.434,16.941,2.172,25.846,13.249c8.905,11.077,3.692,22.805,3.692,22.805s0,3.91,9.991,0
				c9.991-3.91,33.665-16.072,47.348-23.674c13.683-7.602,15.421-15.638,16.941-29.321
				C418.601,367.11,417.949,298.477,414.909,273.282z"/>
			<path style="fill:#2F2035;" d="M218.131,262.229c6.886-26.914,48.922-49.83,63.443-57.036c-2.308-5.694-3.497-9.884-3.497-9.884
				s-64.289,29.321-78.624,46.262c-14.335,16.941-44.307,149.864-44.307,149.864h33.918
				C194.262,367.341,211.114,289.654,218.131,262.229z"/>
			<path style="fill:#FFFFFF;" d="M286.6,243.309c0,0,24.142-21.471,39.736-45.269c-6.49-3.013-10.251-4.685-10.251-4.685
				c-6.733,11.077-26.063,28.235-26.063,28.235c-7.819-11.728-11.946-26.28-11.946-26.28s-3.937,1.796-10.074,4.752
				C268.003,200.063,275.142,223.328,286.6,243.309z"/>
			<path style="fill:#2F2035;" d="M357.434,293.372c0,0-14.199,66.461-49.059,98.063h7.71l38.142-14.229
				c0,0-5.057-6.473,10.762-13.932C364.99,363.274,357.733,312.16,357.434,293.372z"/>
			<path style="fill:#EBB04B;" d="M240.846,213.844l34.841,82.027l79.835-83.837c-7.066-3.489-13.475-6.581-18.975-9.195
				c-21.456,26.424-54.966,60.888-54.966,60.888l-25.46-57.814l0,0C251.348,208.314,246.138,211,240.846,213.844z"/>
			<path style="fill:#E37565;" d="M339.108,410.983c-8.905-11.077-22.371-13.683-25.846-13.249
				c-3.475,0.434-8.036,2.606-8.036,2.606s-13.466,3.258-21.285,7.819c-7.819,4.561-20.718,19.765-20.893,24.109
				s6.558,3.692,9.816,0c0,0-2.389,5.43,2.606,7.385c4.995,1.955,11.946-2.172,11.946-2.172s-1.738,6.081,4.127,7.167
				c5.864,1.086,16.724-1.738,28.887-5.647c12.163-3.909,22.371-5.213,22.371-5.213S348.013,422.06,339.108,410.983z"/>
			<g>
				<path d="M273.659,433.064c3.987-4.316,7.973-8.631,11.96-12.947c0.561-0.608,1.123-1.215,1.684-1.823
					c0.981-1.062-0.606-2.657-1.591-1.591c-3.987,4.316-7.973,8.631-11.96,12.947c-0.561,0.608-1.122,1.215-1.684,1.823
					C271.087,432.535,272.674,434.13,273.659,433.064L273.659,433.064z"/>
			</g>
			<g>
				<path d="M288.211,438.276c3.805-3.678,7.61-7.357,11.416-11.035c0.539-0.521,1.077-1.041,1.616-1.562
					c1.043-1.008-0.549-2.598-1.591-1.591c-3.805,3.678-7.611,7.357-11.416,11.035c-0.539,0.521-1.077,1.041-1.616,1.562
					C285.577,437.694,287.169,439.284,288.211,438.276L288.211,438.276z"/>
			</g>
			<g>
				<path d="M211.418,269.59c-0.763,8.405-1.231,16.843-1.636,25.271c-0.936,19.477-1.25,38.995-0.717,58.489
					c0.348,12.717,1.066,25.428,2.354,38.086c0.194,1.902,3.196,1.922,3,0c-2.236-21.987-2.813-44.132-2.552-66.222
					c0.186-15.69,0.802-31.382,1.889-47.036c0.199-2.864,0.404-5.729,0.663-8.588C214.593,267.668,211.592,267.68,211.418,269.59
					L211.418,269.59z"/>
			</g>
			<g>
				<path d="M316.484,392.882c11.51-4.374,23.021-8.748,34.531-13.122c1.635-0.621,3.27-1.243,4.906-1.864
					c0.841-0.32,1.484-1.332,0.896-2.203c-0.075-0.112-0.146-0.23-0.207-0.35c-0.063-0.125-0.125-0.249-0.187-0.374
					c-0.152-0.306,0.06,0.231-0.087-0.221c-0.121-0.371-0.305-1.075-0.324-1.211c0.029,0.214-0.016-0.192-0.018-0.238
					c-0.007-0.153-0.014-0.305-0.012-0.458c0.002-0.135,0.008-0.271,0.02-0.406c0.027-0.329-0.048,0.206,0.022-0.158
					c0.758-3.923,6.249-5.356,9.763-6.109c0.764-0.164,1.293-1.109,1.048-1.845c-1.095-3.293-1.627-6.839-2.19-10.248
					c-1.971-11.932-2.864-24.111-3.468-36.219c-0.585-11.734-0.801-23.485-0.805-35.233c0-1.93-3-1.934-3,0
					c0.005,18.378,0.465,36.801,2.215,55.104c0.778,8.135,1.716,16.342,3.55,24.319c0.237,1.029,0.471,2.072,0.804,3.076
					c0.349-0.615,0.699-1.23,1.048-1.845c-4.448,0.952-10.701,2.919-11.83,8.063c-0.424,1.933-0.052,4.21,1.068,5.869
					c0.299-0.734,0.598-1.469,0.896-2.203c-11.51,4.374-23.021,8.748-34.531,13.122c-1.635,0.621-3.27,1.243-4.906,1.864
					C313.9,390.668,314.675,393.57,316.484,392.882L316.484,392.882z"/>
			</g>
			<g>
				<path d="M372.97,88.56c0,11.337,0,22.673,0,34.01c0,1.586,0,3.173,0,4.759c0,0.965,1.5,0.967,1.5,0c0-11.337,0-22.673,0-34.01
					c0-1.586,0-3.173,0-4.759C374.47,87.594,372.97,87.593,372.97,88.56L372.97,88.56z"/>
			</g>
			<g>
				<g>
					<path d="M373.011,127.292c-4.863,6.116-2.548,14.263-3.288,21.385c-0.066,0.637,0.931,0.633,0.997,0
						c0.702-6.759-1.622-14.871,2.996-20.68C374.111,127.5,373.411,126.79,373.011,127.292L373.011,127.292z"/>
				</g>
				<g>
					<path d="M373.307,127.064c-1.717,7.08-1.464,14.395-1.173,21.616c0.026,0.639,1.023,0.643,0.997,0
						c-0.287-7.13-0.558-14.36,1.138-21.351C374.42,126.706,373.459,126.44,373.307,127.064L373.307,127.064z"/>
				</g>
				<g>
					<path d="M373.656,127.352c0.055,6.893,0.111,13.786,0.167,20.679c0.005,0.641,1.002,0.643,0.997,0
						c-0.055-6.893-0.111-13.786-0.167-20.679C374.648,126.71,373.651,126.709,373.656,127.352L373.656,127.352z"/>
				</g>
				<g>
					<path d="M373.657,127.673c1.394,0.644,1.628,2.503,1.939,3.839c0.425,1.827,0.765,3.675,1.015,5.534
						c0.489,3.638,0.63,7.316,0.455,10.982c-0.031,0.641,0.966,0.64,0.997,0c0.19-3.999-0.006-8.003-0.592-11.964
						c-0.293-1.982-0.682-3.951-1.175-5.893c-0.333-1.314-0.815-2.748-2.137-3.358C373.581,126.545,373.074,127.404,373.657,127.673
						L373.657,127.673z"/>
				</g>
				<g>
					<path d="M374.039,128.615c0.35,1.67,0.705,3.339,1.048,5.01c0.346,1.686,0.449,3.329,0.433,5.046
						c-0.032,3.578-0.069,7.156-0.104,10.734c-0.006,0.642,0.991,0.642,0.997,0c0.035-3.678,0.079-7.357,0.106-11.035
						c0.025-3.421-0.822-6.69-1.52-10.02C374.869,127.723,373.908,127.988,374.039,128.615L374.039,128.615z"/>
				</g>
				<g>
					<path d="M373.362,126.799c-2.634,1.406-3.737,4.279-4.241,7.066c-0.607,3.358-0.745,6.792-0.471,10.19
						c0.051,0.635,1.049,0.641,0.997,0c-0.251-3.116-0.161-6.261,0.337-9.35c0.439-2.716,1.278-5.656,3.88-7.046
						C374.431,127.357,373.928,126.496,373.362,126.799L373.362,126.799z"/>
				</g>
				<g>
					<path d="M372.594,128.685c-1.738,5.245-2.348,10.81-1.783,16.307c0.065,0.632,1.063,0.639,0.997,0
						c-0.557-5.418,0.035-10.871,1.748-16.042C373.757,128.34,372.795,128.078,372.594,128.685L372.594,128.685z"/>
				</g>
			</g>
			<g>
				<g>
					<path d="M374.426,128.576c4.863,6.116,2.549,14.263,3.288,21.385c0.066,0.637-0.931,0.633-0.997,0
						c-0.702-6.759,1.622-14.872-2.996-20.68C373.326,128.783,374.027,128.073,374.426,128.576L374.426,128.576z"/>
				</g>
				<g>
					<path d="M374.13,128.348c1.717,7.08,1.464,14.395,1.173,21.617c-0.026,0.639-1.023,0.643-0.997,0
						c0.287-7.13,0.558-14.36-1.137-21.352C373.018,127.989,373.979,127.723,374.13,128.348L374.13,128.348z"/>
				</g>
				<g>
					<path d="M373.781,128.635c-0.056,6.893-0.111,13.786-0.167,20.679c-0.005,0.641-1.002,0.643-0.997,0
						c0.055-6.893,0.111-13.786,0.167-20.679C372.79,127.994,373.787,127.992,373.781,128.635L373.781,128.635z"/>
				</g>
				<g>
					<path d="M373.781,128.957c-1.394,0.644-1.629,2.502-1.939,3.839c-0.425,1.827-0.765,3.674-1.015,5.534
						c-0.489,3.638-0.63,7.316-0.455,10.982c0.031,0.641-0.966,0.64-0.997,0c-0.19-3.999,0.006-8.003,0.592-11.964
						c0.293-1.982,0.682-3.951,1.175-5.893c0.334-1.314,0.815-2.748,2.137-3.358C373.856,127.829,374.363,128.688,373.781,128.957
						L373.781,128.957z"/>
				</g>
				<g>
					<path d="M373.399,129.899c-0.35,1.67-0.705,3.339-1.048,5.01c-0.346,1.685-0.448,3.329-0.433,5.046
						c0.032,3.578,0.069,7.156,0.104,10.734c0.006,0.642-0.991,0.642-0.997,0c-0.036-3.678-0.079-7.356-0.106-11.035
						c-0.025-3.421,0.823-6.69,1.52-10.02C372.569,129.006,373.53,129.272,373.399,129.899L373.399,129.899z"/>
				</g>
				<g>
					<path d="M374.076,128.082c2.634,1.406,3.737,4.278,4.24,7.066c0.607,3.358,0.745,6.792,0.471,10.19
						c-0.051,0.635-1.048,0.641-0.997,0c0.251-3.117,0.161-6.261-0.337-9.35c-0.439-2.717-1.278-5.657-3.88-7.046
						C373.007,128.641,373.51,127.78,374.076,128.082L374.076,128.082z"/>
				</g>
				<g>
					<path d="M374.843,129.969c1.738,5.245,2.348,10.81,1.783,16.306c-0.065,0.632-1.063,0.639-0.997,0
						c0.557-5.418-0.035-10.871-1.748-16.041C373.68,129.623,374.642,129.361,374.843,129.969L374.843,129.969z"/>
				</g>
			</g>
			<path style="fill:#D6973C;" d="M260.832,216.61l-4.711-10.698c-4.773,2.402-9.983,5.088-15.275,7.932l5.449,12.829
				C248.484,224.738,253.536,220.609,260.832,216.61z"/>
			<path style="opacity:0.63;fill:#DBECF5;" d="M281.574,205.193L281.574,205.193c-2.308-5.694-3.497-9.884-3.497-9.884
				s-3.937,1.796-10.074,4.752c0,0.001,1.29,4.198,3.645,10.547L281.574,205.193z"/>
			<path style="fill:#2F2035;" d="M292.44,64.719c-14.54,1.209-24.438,6.138-24.438,6.138l-6.432,24.326
				c6.729-2.039,13.457-1.446,18.703-0.243C281.014,77.894,287.871,68.87,292.44,64.719z"/>
		</g>
		<g>
			<g>
				<path style="fill:#FFFAE3;" d="M249.28,284.35l-34.887-0.622c0,0-11.262,9.634,1.307,28.863l19.518-3.583l50.111-15.488
					l56.328-4.186c0,0,9.801-11.437-7.441-28.556l-57.233,19.685L249.28,284.35z"/>
				<path style="fill:#EAE3C3;" d="M250.681,304.228l34.649-10.709l16.285-1.21c-1.912-5.306-3.397-12.51-1.527-19.793
					l-23.103,7.946l-27.704,3.888l-7.819-0.139C245.147,289.331,248.954,296.188,250.681,304.228z"/>
				<path style="fill:#E37565;" d="M200.854,342.404l35.317,9.235c0,0,17.404-22.178,29.214-32.349
					c11.81-10.171,11.81-10.171,20.62-13.407c8.81-3.236,12.484-11.522,12.678-18.535c0.194-7.014-4.961-7.353-10.736-11.513
					c-5.776-4.161-8.159,2.895-6.02,5.921c2.139,3.026,4.723,6.372,4.723,6.372l-1.32,5.392l-50.111,15.488L200.854,342.404z"/>
				<path style="fill:#D16459;" d="M237.835,308.198l-2.616,0.809l-34.364,33.397l10.762,2.814
					C222.564,329.42,226.989,322.652,237.835,308.198z"/>
				<g>
					<g>
						<path style="fill:#BC3139;" d="M266.346,281.081c-1.794,6.061-0.93,12.75,2.341,18.158c0.998,1.65,3.593,0.144,2.59-1.514
							c-2.873-4.749-3.615-10.524-2.039-15.846C269.788,280.023,266.893,279.231,266.346,281.081L266.346,281.081z"/>
					</g>
					<g>
						<path style="fill:#BC3139;" d="M270.019,282.882c1.339,4.362,2.032,8.86,2.055,13.423c0.01,1.93,3.01,1.934,3,0
							c-0.024-4.813-0.75-9.619-2.162-14.22C272.347,280.244,269.451,281.029,270.019,282.882L270.019,282.882z"/>
					</g>
					<g>
						<path style="fill:#BC3139;" d="M267.528,296.174c-2.848,1.392-6.095,1.941-8.733,3.77c-2.736,1.897-4.771,5.11-5.808,8.251
							c-0.547,1.655-0.1,3.478,1.52,4.312c1.407,0.725,3.081,0.484,4.547,0.096c3.13-0.828,6.064-2.597,8.228-5.01
							c2.603-2.903,4.094-6.592,4.349-10.473c0.053-0.809-0.727-1.5-1.5-1.5c-0.856,0-1.447,0.688-1.5,1.5
							c-0.345,5.245-3.706,9.98-8.573,11.992c-1.07,0.443-2.339,0.906-3.514,0.863c-0.227-0.008-0.642-0.031-0.762-0.189
							c-0.227-0.299,0.174-1.007,0.304-1.301c1.042-2.367,2.389-4.814,4.638-6.224c2.559-1.604,5.619-2.177,8.319-3.497
							c0.728-0.356,0.925-1.39,0.538-2.052C269.146,295.97,268.259,295.817,267.528,296.174L267.528,296.174z"/>
					</g>
					<g>
						<path style="fill:#BC3139;" d="M268.598,297.614c-0.193,3.813,2.53,7.112,6.082,8.207c1.016,0.313,2.159,0.512,3.142-0.007
							c0.941-0.497,1.468-1.533,1.54-2.564c0.128-1.832-1.338-3.596-2.676-4.688c-1.593-1.3-3.412-2.062-5.449-2.317
							c-0.782-0.098-1.533,0.76-1.5,1.5c0.04,0.896,0.663,1.395,1.5,1.5c-0.392-0.049,0.113,0.023,0.191,0.038
							c0.137,0.026,0.273,0.056,0.408,0.09c0.329,0.081,0.652,0.181,0.969,0.301c0.056,0.021,0.111,0.045,0.167,0.065
							c0.206,0.076-0.225-0.109-0.029-0.011c0.125,0.062,0.253,0.117,0.377,0.181c0.302,0.154,0.594,0.325,0.876,0.513
							c0.116,0.077,0.229,0.158,0.342,0.24c0.224,0.163,0.02,0.018-0.02-0.016c0.061,0.051,0.123,0.101,0.184,0.152
							c0.242,0.206,0.474,0.426,0.691,0.659c0.109,0.116,0.214,0.236,0.316,0.358c0.051,0.061,0.101,0.123,0.15,0.186
							c-0.011-0.014-0.144-0.206-0.055-0.065c0.094,0.148,0.201,0.287,0.292,0.437c0.035,0.057,0.068,0.115,0.1,0.173
							c0.031,0.056,0.154,0.409,0.07,0.124c0.019,0.063,0.043,0.124,0.061,0.188c0.013,0.044,0.076,0.315,0.04,0.121
							c-0.037-0.2-0.019,0.241-0.008,0.272c-0.127-0.342,0.097-0.18-0.005-0.087c-0.168,0.155,0.079,0.051,0.039-0.062
							c0.016,0.044-0.122,0.146-0.103,0.182c-0.032-0.059,0.247-0.224,0.003-0.029c-0.159,0.127,0.226-0.168,0.057-0.056
							c-0.134,0.089,0.114-0.049,0.121-0.052c0.203-0.073,0.108-0.008-0.006-0.002c-0.266,0.015-0.095,0.005-0.012,0.016
							c-0.329-0.04-0.663-0.135-0.979-0.233c-0.159-0.049-0.314-0.106-0.47-0.162c-0.061-0.022-0.262-0.114,0.013,0.01
							c-0.057-0.025-0.113-0.051-0.17-0.077c-0.319-0.149-0.627-0.319-0.922-0.511c-0.121-0.079-0.237-0.165-0.356-0.248
							c-0.182-0.126,0.173,0.156,0.011,0.006c-0.045-0.042-0.095-0.079-0.142-0.12c-0.266-0.23-0.514-0.481-0.741-0.75
							c-0.041-0.049-0.081-0.098-0.121-0.147c0.208,0.258-0.045-0.074-0.067-0.107c-0.095-0.141-0.185-0.285-0.269-0.432
							c-0.095-0.166-0.172-0.341-0.262-0.509c-0.107-0.198,0.076,0.219,0.001,0.007c-0.036-0.1-0.076-0.198-0.11-0.299
							c-0.123-0.363-0.208-0.732-0.271-1.11c0.053,0.317-0.003-0.113-0.008-0.233c-0.01-0.212-0.006-0.423,0.005-0.635
							c0.04-0.785-0.718-1.535-1.5-1.5C269.251,296.152,268.64,296.773,268.598,297.614L268.598,297.614z"/>
					</g>
				</g>
				<path style="fill:#E37565;" d="M289.801,271.46c0,0-3.974-3.362-8.023-3.175c-4.049,0.187-7.935,4.905-13.23,10.626
					c-5.295,5.721-4.807,14.036-1.718,15.182c3.089,1.145,5.268,0.556,8.086-6.727c3.125-4.403,10.678-8.639,10.678-8.639
					S294.071,273.941,289.801,271.46z"/>
				<path style="fill:#E37565;" d="M268.548,278.911c3.271-3.534,6.004-6.682,8.57-8.619v0c-5.57-4.98-10.503,1.242-10.503,1.242
					c-6.98,7.254-11.202,15.55-9.058,19.112c2.144,3.563,7.399,1.095,7.399,1.095C263.914,288.592,264.697,283.072,268.548,278.911z
					"/>
				<path style="fill:#E37565;" d="M257.557,290.646c-1.841-3.058,1.018-9.605,6.277-15.986c-1.165-0.253-2.855-0.422-4.829,0.027
					c-3.705,0.843-6.124,3.902-6.907,5.56c-0.783,1.658-1.743,9.32-0.143,11.053c1.347,1.46,3.776,2.164,6.069-0.025
					C257.858,291.089,257.7,290.883,257.557,290.646z"/>
				<path style="fill:#E37565;" d="M252.099,280.247c0.303-0.641,0.856-1.491,1.627-2.342c-0.744-0.487-1.841-0.936-3.275-0.801
					c-2.892,0.272-4.596,2.824-5.013,6.775c-0.417,3.951-0.418,6.556,1.727,7.102c1.462,0.372,3.118,0.04,4.26-0.759
					C250.631,287.496,251.427,281.669,252.099,280.247z"/>
				<path style="fill:#2D2D2D;" d="M277.118,270.292c-1.55,1.539-3.017,3.122-4.458,4.707c-1.427,1.597-2.786,3.243-3.975,4.987
					c-1.207,1.726-2.289,3.551-2.973,5.517c-0.683,1.96-1.039,4.049-0.756,6.238c-0.859-2.024-0.924-4.396-0.368-6.575
					c0.509-2.212,1.614-4.207,2.861-6.036c1.277-1.818,2.743-3.485,4.38-4.953C273.448,272.693,275.213,271.371,277.118,270.292z"/>
				<path style="fill:#2D2D2D;" d="M263.835,274.66c-1.604,2.708-3.256,5.277-4.524,8.003c-0.662,1.346-1.178,2.747-1.471,4.178
					c-0.285,1.434-0.312,2.914,0.185,4.434c-1.061-1.204-1.457-2.949-1.35-4.576c0.08-1.651,0.595-3.227,1.275-4.673
					c0.7-1.443,1.538-2.804,2.532-4.035C261.47,276.758,262.564,275.609,263.835,274.66z"/>
				<path style="fill:#2D2D2D;" d="M253.726,277.905c-0.947,2.044-1.72,3.973-2.105,6.001c-0.223,1.003-0.322,2.028-0.337,3.07
					c-0.049,1.052,0.086,2.099,0.141,3.246c-0.641-0.926-1.132-2.001-1.31-3.145c-0.235-1.138-0.192-2.328,0.033-3.468
					c0.242-1.138,0.652-2.238,1.263-3.213C252.014,279.424,252.771,278.536,253.726,277.905z"/>
			</g>
			<polygon style="fill:#7F84FD;" points="279.686,450.078 129.516,431.182 112.575,311.291 263.044,327.581 			"/>
			<polygon style="fill:#DBECF5;" points="263.044,327.581 269.606,327.581 286.004,446.434 279.686,450.078 			"/>
			<polygon style="fill:#DBECF5;" points="112.575,311.291 120.951,310.965 269.606,327.581 263.044,327.581 			"/>
			<g>
				<path style="fill:#EBB04B;" d="M196.64,276.013c-2.111,3.118-1.651,7.533,0.88,10.262c0.535,0.577,1.587,0.582,2.121,0
					c0.567-0.617,0.571-1.506,0-2.121c-0.055-0.059-0.109-0.118-0.162-0.178c-0.002-0.002-0.239-0.292-0.111-0.127
					c0.114,0.147-0.042-0.062-0.061-0.089c-0.057-0.082-0.113-0.165-0.166-0.249c-0.085-0.135-0.165-0.273-0.24-0.414
					c-0.047-0.088-0.091-0.177-0.134-0.268c-0.015-0.031-0.12-0.272-0.046-0.094c0.083,0.197-0.042-0.116-0.056-0.155
					c-0.027-0.075-0.053-0.151-0.077-0.227c-0.055-0.172-0.104-0.345-0.146-0.52c-0.042-0.176-0.075-0.353-0.106-0.53
					c-0.031-0.179-0.001-0.078,0.005,0.041c-0.005-0.1-0.02-0.2-0.026-0.3c-0.023-0.34-0.022-0.682,0.003-1.022
					c0.007-0.1,0.019-0.199,0.029-0.299c0.021-0.219-0.052,0.257-0.003,0.042c0.041-0.175,0.066-0.353,0.111-0.528
					c0.044-0.174,0.095-0.347,0.152-0.517c0.025-0.075,0.058-0.149,0.081-0.225c0.063-0.205-0.107,0.22-0.014,0.026
					c0.165-0.345,0.342-0.676,0.557-0.993c0.441-0.651,0.146-1.691-0.538-2.052C197.933,275.074,197.11,275.318,196.64,276.013
					L196.64,276.013z"/>
			</g>
			<g>
				<path style="fill:#EBB04B;" d="M239.282,241.439c-5.314,1.032-6.196,8.459-4.665,12.659c0.519,1.422,1.361,2.725,2.67,3.536
					c1.185,0.735,2.724,1.015,4.078,0.653c0.648-0.173,1.319-0.52,1.792-1.002c0.706-0.719,0.521-1.753,0.271-2.64
					c-0.376-1.335-1.174-2.58-2.253-3.453c-2.676-2.165-6.595-1.922-9.04,0.494c-1.375,1.359,0.746,3.48,2.121,2.121
					c1.082-1.07,2.753-1.452,4.148-0.856c1.262,0.539,2.176,1.906,2.258,3.212c0.146-0.354,0.293-0.707,0.439-1.061
					c-0.353,0.328-0.848,0.405-1.312,0.32c-0.674-0.122-1.16-0.399-1.602-0.932c-0.958-1.155-1.201-2.862-1.231-4.316
					c-0.027-1.293,0.172-2.665,0.673-3.725c0.324-0.683,0.547-1.02,1.048-1.485c0.098-0.091,0.292-0.229,0.568-0.381
					c0.268-0.147-0.059-0.001,0.211-0.094c0.204-0.07,0.412-0.118,0.623-0.159c0.796-0.154,1.25-1.107,1.048-1.845
					C240.899,241.655,240.08,241.284,239.282,241.439L239.282,241.439z"/>
			</g>
			<g>
				<path style="fill:#EBB04B;" d="M337.183,322.606c3.364,4.659,1.848,11.904-3.223,14.699c-1.691,0.932-0.179,3.524,1.514,2.59
					c6.392-3.524,8.598-12.85,4.299-18.804c-0.473-0.656-1.305-0.975-2.052-0.538C337.073,320.933,336.706,321.946,337.183,322.606
					L337.183,322.606z"/>
			</g>
			<g>
				<path style="fill:#EBB04B;" d="M312.363,347.954c-3.233,0.866-5.35,4.111-5.357,7.384c-0.007,3.538,2.281,6.614,5.117,8.512
					c0.673,0.451,1.661,0.131,2.052-0.538c0.431-0.737,0.137-1.6-0.538-2.052c-1.904-1.274-3.563-3.39-3.629-5.74
					c-0.056-2.028,1.157-4.138,3.152-4.673C315.023,350.348,314.233,347.453,312.363,347.954L312.363,347.954z"/>
			</g>
			<g>
				<path style="fill:#EBB04B;" d="M371.894,243.244c0.263-0.007,0.526-0.003,0.788,0.018c0.037,0.003,0.074,0.007,0.112,0.01
					c0.171,0.019,0.149,0.015-0.065-0.013c0.06,0.037,0.261,0.043,0.331,0.057c0.455,0.089,0.978,0.199,1.391,0.418
					c-0.341-0.18-0.008,0.002,0.052,0.03c0.101,0.048,0.202,0.099,0.301,0.151c0.232,0.123,0.458,0.257,0.677,0.401
					c0.094,0.062,0.187,0.126,0.279,0.191c0.055,0.039,0.333,0.281,0.056,0.038c0.185,0.161,0.374,0.313,0.552,0.483
					c0.177,0.169,0.347,0.345,0.509,0.528c0.075,0.084,0.146,0.172,0.219,0.258c0.245,0.289-0.176-0.257,0.041,0.053
					c0.28,0.4,0.539,0.809,0.752,1.25c0.019,0.038,0.15,0.265,0.14,0.306c-0.078-0.186-0.087-0.202-0.025-0.047
					c0.013,0.035,0.026,0.07,0.039,0.105c0.089,0.245,0.165,0.495,0.228,0.749c0.043,0.174,0.033,0.513,0.13,0.659
					c-0.028-0.214-0.032-0.235-0.013-0.064c0.003,0.037,0.007,0.075,0.01,0.112c0.012,0.15,0.018,0.3,0.021,0.451
					c0.017,0.784,0.678,1.537,1.5,1.5c0.798-0.036,1.518-0.66,1.5-1.5c-0.107-4.94-4.555-9.278-9.524-9.144
					c-0.784,0.021-1.537,0.675-1.5,1.5C370.43,242.538,371.054,243.266,371.894,243.244L371.894,243.244z"/>
			</g>
			<g>
				<path style="fill:#7F84FD;" d="M201.733,240.883c0.329,0.149,0.646,0.322,0.946,0.524c0.025,0.017,0.239,0.192,0.264,0.188
					c-0.077,0.012-0.229-0.185-0.008,0.001c0.137,0.116,0.27,0.238,0.398,0.365c0.128,0.127,0.251,0.259,0.368,0.396
					c0.056,0.065,0.13,0.133,0.173,0.208c-0.166-0.295-0.06-0.075-0.007,0c0.22,0.31,0.416,0.637,0.585,0.977
					c0.04,0.081,0.076,0.164,0.116,0.245c0.092,0.184-0.126-0.341-0.004-0.008c0.063,0.17,0.125,0.339,0.178,0.512
					c0.096,0.311,0.253,0.726,0.238,1.056c0.017-0.381-0.014-0.076-0.005,0.031c0.006,0.072,0.01,0.144,0.014,0.215
					c0.01,0.198,0.01,0.396,0.001,0.594c-0.004,0.09-0.01,0.18-0.017,0.27c-0.005,0.053-0.057,0.359-0.01,0.123
					c0.047-0.239-0.016,0.071-0.025,0.121c-0.021,0.107-0.045,0.212-0.07,0.318c-0.183,0.762,0.24,1.661,1.048,1.845
					c0.771,0.176,1.649-0.232,1.845-1.048c0.889-3.698-1-7.929-4.514-9.524c-0.713-0.324-1.648-0.228-2.052,0.538
					C200.847,239.488,200.97,240.537,201.733,240.883L201.733,240.883z"/>
			</g>
			<g>
				<path style="fill:#7F84FD;" d="M175.379,294.254c-2.869,0.986-4.863,3.59-5.107,6.606c-0.063,0.784,0.735,1.534,1.5,1.5
					c0.867-0.039,1.432-0.66,1.5-1.5c0.008-0.099,0.018-0.197,0.03-0.296c-0.018,0.133-0.036,0.266-0.054,0.399
					c0.037-0.27,0.09-0.536,0.163-0.799c0.033-0.119,0.071-0.237,0.112-0.353c0.021-0.058,0.042-0.116,0.064-0.174
					c0.093-0.241-0.007,0.073-0.052,0.118c0.078-0.079,0.124-0.268,0.177-0.368c0.063-0.121,0.13-0.24,0.201-0.356
					c0.064-0.106,0.132-0.21,0.203-0.312c0.019-0.027,0.128-0.15,0.13-0.181c-0.003,0.051-0.243,0.306-0.074,0.099
					c0.164-0.202,0.341-0.393,0.53-0.573c0.09-0.085,0.182-0.168,0.277-0.248c0.086-0.072,0.306-0.21-0.072,0.049
					c0.051-0.035,0.099-0.074,0.149-0.11c0.211-0.151,0.432-0.288,0.662-0.409c0.109-0.058,0.221-0.109,0.333-0.162
					c0.258-0.122-0.354,0.131-0.084,0.038c0.07-0.024,0.14-0.051,0.21-0.075c0.741-0.254,1.308-1.041,1.048-1.845
					C176.987,294.567,176.173,293.98,175.379,294.254L175.379,294.254z"/>
			</g>
			<g>
				<path style="fill:#7F84FD;" d="M372.407,298.898c-2.003,1.556-2.13,4.54-1.044,6.659c1.285,2.504,4.272,3.337,6.878,2.791
					c1.298-0.272,2.635-0.944,3.578-1.886c1.268-1.266,1.13-3.066-0.027-4.346c-1.993-2.204-5.595-1.76-7.897-0.362
					c-2.848,1.73-4.227,4.859-5.433,7.817c-0.306,0.75,0.332,1.649,1.048,1.845c0.859,0.236,1.538-0.294,1.845-1.048
					c0.711-1.742,1.544-3.682,2.871-5.057c0.585-0.607,1.349-1.149,2.068-1.415c0.214-0.079,0.433-0.146,0.654-0.2
					c0.054-0.013,0.598-0.107,0.434-0.09c0.52-0.054,0.898-0.029,1.256,0.06c0.108,0.027,0.215,0.059,0.321,0.094
					c0.004,0.001,0.257,0.103,0.112,0.037c0.096,0.044,0.192,0.097,0.28,0.153c0.012,0.008,0.215,0.165,0.089,0.057
					c0.078,0.066,0.165,0.149,0.231,0.23c-0.112-0.137,0.038,0.065,0.048,0.081c0.172,0.267,0.051,0.123,0.03,0.061
					c-0.002-0.133-0.002-0.145-0.001-0.035c0,0.108,0.002,0.098,0.007-0.032c0.118-0.22-0.118,0.085-0.182,0.145
					c-0.004,0.004-0.219,0.182-0.085,0.078c-0.086,0.067-0.181,0.129-0.271,0.188c-0.423,0.277-0.771,0.443-1.134,0.561
					c-0.21,0.068-0.424,0.125-0.64,0.171c-0.107,0.023-0.217,0.045-0.325,0.059c0.078-0.01,0.202-0.008-0.091,0.002
					c-0.465,0.016-0.871,0.005-1.134-0.052c-0.518-0.114-0.662-0.171-1.057-0.413c-0.092-0.056-0.186-0.117-0.272-0.182
					c0.063,0.048,0.162,0.162-0.018-0.029c-0.063-0.067-0.133-0.127-0.196-0.195c-0.024-0.026-0.246-0.306-0.147-0.168
					c-0.198-0.275-0.297-0.475-0.408-0.852c-0.026-0.089-0.049-0.179-0.07-0.27c-0.009-0.038-0.066-0.471-0.036-0.149
					c-0.02-0.207-0.021-0.412-0.018-0.619c0.001-0.044,0.024-0.331,0.003-0.141c-0.022,0.197,0.033-0.163,0.042-0.201
					c0.02-0.087,0.043-0.174,0.07-0.26c0.029-0.094,0.163-0.367,0.044-0.138c0.041-0.079,0.081-0.158,0.126-0.234
					c0.023-0.039,0.268-0.353,0.075-0.13c0.15-0.173,0.316-0.323,0.497-0.464c0.64-0.497,0.523-1.599,0-2.121
					C373.896,298.266,373.049,298.4,372.407,298.898L372.407,298.898z"/>
			</g>
			<g>
				<path style="fill:#E68DA8;" d="M310.896,313.167c0.107,0.148,0.209,0.298,0.302,0.456c0.055,0.094,0.107,0.189,0.157,0.286
					c0.022,0.043,0.171,0.317,0.062,0.116c-0.107-0.198,0.028,0.074,0.046,0.122c0.031,0.085,0.06,0.17,0.086,0.257
					c0.059,0.19,0.109,0.383,0.148,0.578c0.014,0.071,0.026,0.142,0.039,0.214c0.068,0.362-0.02-0.336,0.002,0.033
					c0.011,0.182,0.026,0.362,0.027,0.544c0.001,0.182-0.005,0.364-0.02,0.546c-0.008,0.095,0.014,0.428,0.005,0.036
					c0.002,0.087-0.029,0.185-0.045,0.27c-0.068,0.361-0.172,0.707-0.291,1.054c-0.061,0.18-0.066,0.162,0.009-0.004
					c-0.045,0.099-0.09,0.198-0.139,0.296c-0.081,0.162-0.169,0.321-0.265,0.475c-0.095,0.154-0.2,0.301-0.306,0.448
					c0.225-0.312-0.111,0.114-0.185,0.192c-0.137,0.144-0.3,0.264-0.435,0.408c-0.132,0.141,0.285-0.194,0.003,0
					c-0.09,0.062-0.18,0.124-0.273,0.184c-0.66,0.424-0.99,1.352-0.538,2.052c0.425,0.659,1.346,0.992,2.052,0.538
					c3.402-2.185,4.575-7.271,2.149-10.613c-0.46-0.633-1.325-1.007-2.052-0.538C310.806,311.519,310.403,312.488,310.896,313.167
					L310.896,313.167z"/>
			</g>
			<g>
				<path style="fill:#E68DA8;" d="M323.58,230.967c-3.802,5.171-3.234,12.778,1.027,17.491c1.298,1.435,3.414-0.692,2.121-2.121
					c-3.424-3.787-3.545-9.794-0.558-13.855c0.48-0.653,0.109-1.674-0.538-2.052C324.871,229.983,324.062,230.312,323.58,230.967
					L323.58,230.967z"/>
			</g>
		</g>
		<g>
			<ellipse style="fill:#DBECF5;" cx="48.678" cy="410.728" rx="30.745" ry="13.038"/>
			<path style="fill:#E68DA8;" d="M32.088,368.956c0,0,0,13.485,2.28,28.734c2.281,15.248,7.167,25.348,7.167,25.348
				s25.086,13.113,49.846-1.751c0,0,9.122-17.47,8.145-52.33C99.527,368.956,69.554,377.753,32.088,368.956z"/>
			<path d="M99.527,368.956c0,0-1.882-3.584-33.683-4.235c0,0-25.937,0-33.756,4.235C69.554,377.752,99.527,368.956,99.527,368.956z
				"/>
			<path style="fill:#70ACAD;" d="M65.807,368.956c0,0-19.385,0.652-30.787-21.176s1.629-19.873,6.19-20.525
				c4.561-0.651,8.47-1.955,1.955-20.525s5.864-54.166,16.941-56.73c11.077-2.564,2.606,17.635,14.335,16.332
				c11.728-1.303,15.638,1.303,17.593,8.796c1.955,7.493-5.538,31.602-11.729,42.027s6.171,7.493,12.045,11.403
				C98.224,332.467,99.301,361.458,65.807,368.956z"/>
			<g>
				<g>
					<path d="M59.057,280.142c-1.796,6.071-2.798,12.445-3.582,18.712c-1.777,14.2-1.693,28.709,0.836,42.813
						c1.716,9.57,4.629,18.902,8.849,27.668c0.419,0.87,1.712,0.11,1.295-0.757c-7.173-14.901-10.356-31.413-10.662-47.881
						c-0.212-11.39,0.855-22.85,3.216-33.997c0.437-2.063,0.895-4.135,1.494-6.159C60.778,279.613,59.331,279.216,59.057,280.142
						L59.057,280.142z"/>
				</g>
				<g>
					<path d="M46.101,296.249c2.409,4.491,4.817,8.983,7.226,13.475c0.348,0.649,0.696,1.297,1.044,1.946
						c0.456,0.851,1.752,0.094,1.295-0.757c-2.409-4.492-4.817-8.983-7.226-13.475c-0.348-0.649-0.696-1.297-1.044-1.946
						C46.94,294.641,45.644,295.397,46.101,296.249L46.101,296.249z"/>
				</g>
				<g>
					<path d="M55.548,323.55c6.906-7.037,13.812-14.074,20.717-21.112c0.98-0.999,1.96-1.998,2.941-2.997
						c0.677-0.69-0.383-1.751-1.061-1.061c-6.906,7.037-13.812,14.074-20.717,21.112c-0.98,0.999-1.96,1.998-2.941,2.997
						C53.811,323.179,54.871,324.24,55.548,323.55L55.548,323.55z"/>
				</g>
				<g>
					<path d="M38.725,337.559c6.516,6.335,13.033,12.669,19.549,19.004c0.913,0.888,1.827,1.776,2.74,2.663
						c0.693,0.673,1.754-0.386,1.061-1.061c-6.516-6.335-13.033-12.669-19.549-19.004c-0.913-0.888-1.827-1.776-2.74-2.664
						C39.093,335.825,38.031,336.884,38.725,337.559L38.725,337.559z"/>
				</g>
			</g>
			<path style="fill:#D67B99;" d="M47.4,407.725c-7.121-14.174-5.944-29.129-4.642-36.685c-3.473-0.546-7.035-1.23-10.67-2.084
				c0,0,0,13.485,2.28,28.734c2.281,15.248,7.167,25.348,7.167,25.348s21.567,11.257,44.443,1.05
				C74.498,423.992,54.433,421.723,47.4,407.725z"/>
			<path style="fill:#F9BDD1;" d="M91.382,421.286c0,0,9.122-17.47,8.145-52.33c0,0-9.64,2.825-24.811,3.671
				c2.354,0.274,5.872,0.628,10.15,0.89c7.982,0.489,11.091,8.308,10.676,15.312C95.129,395.834,91.382,421.286,91.382,421.286z"/>
			<g>
				<g>
					<path style="fill:#5A8E8E;" d="M83.845,275.754c0.148,0.13,0.284,0.266,0.418,0.41c0.113,0.135,0.124,0.148,0.032,0.039
						c0.055,0.079,0.108,0.16,0.157,0.243c0.1,0.165,0.192,0.338,0.267,0.516c-0.103-0.244,0.087,0.282,0.102,0.333
						c0.246,0.83,0.257,1.121,0.263,1.982c0.013,2.03-0.334,4.003,0.105,6.019c0.173,0.792,1.094,1.254,1.845,1.048
						c0.818-0.225,1.221-1.051,1.048-1.845c-0.4-1.838,0.101-3.892-0.018-5.824c-0.114-1.852-0.653-3.78-2.098-5.042
						c-0.61-0.533-1.521-0.6-2.121,0C83.301,274.177,83.232,275.219,83.845,275.754L83.845,275.754z"/>
				</g>
				<g>
					<path style="fill:#5A8E8E;" d="M79.258,277.457c0.109,0.326,0.218,0.651,0.327,0.977c0.046,0.195,0.136,0.365,0.269,0.51
						c0.106,0.163,0.246,0.292,0.421,0.386c0.172,0.11,0.358,0.169,0.558,0.178c0.199,0.045,0.399,0.036,0.598-0.027
						c0.119-0.05,0.239-0.101,0.358-0.151c0.225-0.133,0.405-0.313,0.538-0.538c0.05-0.119,0.101-0.239,0.151-0.358
						c0.072-0.266,0.072-0.532,0-0.798c-0.109-0.326-0.218-0.651-0.327-0.977c-0.046-0.195-0.136-0.365-0.269-0.51
						c-0.106-0.163-0.246-0.292-0.421-0.386c-0.172-0.11-0.358-0.169-0.558-0.178c-0.199-0.045-0.399-0.036-0.598,0.027
						c-0.119,0.05-0.239,0.101-0.358,0.151c-0.225,0.133-0.405,0.313-0.538,0.538c-0.05,0.119-0.101,0.239-0.151,0.358
						C79.186,276.926,79.186,277.191,79.258,277.457L79.258,277.457z"/>
				</g>
				<g>
					<path style="fill:#5A8E8E;" d="M85.783,334.799c2.084,1.888,1.01,5.575,0.33,7.873c-0.929,3.138-2.479,6.1-4.545,8.641
						c-0.511,0.628-0.614,1.507,0,2.121c0.528,0.528,1.608,0.632,2.121,0c2.534-3.118,4.439-6.685,5.489-10.573
						c0.887-3.285,1.558-7.618-1.273-10.183C86.476,331.384,84.348,333.5,85.783,334.799L85.783,334.799z"/>
				</g>
				<g>
					<path style="fill:#5A8E8E;" d="M79.172,340.291c-0.009,0.085-0.019,0.17-0.03,0.255c0.018-0.133,0.036-0.266,0.053-0.399
						c-0.085,0.596-0.245,1.175-0.475,1.73c0.05-0.12,0.101-0.239,0.151-0.358c-0.236,0.554-0.537,1.073-0.902,1.552
						c0.078-0.101,0.156-0.202,0.234-0.304c-0.092,0.118-0.188,0.234-0.286,0.347c-0.264,0.302-0.439,0.649-0.439,1.061
						c0,0.368,0.163,0.807,0.439,1.061c0.286,0.262,0.661,0.457,1.061,0.439c0.382-0.017,0.8-0.141,1.061-0.439
						c0.565-0.646,1.056-1.354,1.398-2.143c0.189-0.435,0.365-0.871,0.487-1.329c0.128-0.482,0.197-0.978,0.248-1.473
						c0.037-0.359-0.194-0.816-0.439-1.061c-0.26-0.26-0.687-0.456-1.061-0.439c-0.388,0.017-0.79,0.145-1.061,0.439
						c-0.078,0.101-0.156,0.202-0.235,0.304C79.241,339.767,79.173,340.02,79.172,340.291L79.172,340.291z"/>
				</g>
				<g>
					<path style="fill:#5A8E8E;" d="M64.269,327.249c-0.15,5.42,0.622,10.857,2.281,16.02c0.588,1.831,3.486,1.048,2.893-0.798
						c-1.584-4.93-2.317-10.046-2.174-15.222C67.323,325.318,64.323,325.319,64.269,327.249L64.269,327.249z"/>
				</g>
				<g>
					<path style="fill:#5A8E8E;" d="M58.476,259.571c0.157,0.258,0.292,0.523,0.423,0.795c0.139,0.289-0.07-0.214,0.047,0.116
						c0.043,0.121,0.091,0.241,0.134,0.363c0.179,0.511,0.327,1.031,0.479,1.55c0.319,1.084,0.657,2.232,1.3,3.173
						c0.624,0.912,1.446,1.739,2.458,2.211c1.236,0.576,2.484,0.608,3.727,0.038c0.715-0.328,0.947-1.418,0.538-2.052
						c-0.476-0.738-1.287-0.889-2.052-0.538c0.347-0.159,0.04-0.023-0.04,0c-0.05,0.014-0.1,0.026-0.151,0.036
						c-0.115,0.022-0.067,0.017,0.145-0.015c-0.003,0.017-0.237,0.008-0.255,0.009c-0.051,0-0.102-0.002-0.153-0.006
						c0.212,0.034,0.26,0.041,0.145,0.021c-0.088-0.02-0.485-0.181-0.551-0.152c0.054,0.023,0.108,0.046,0.162,0.07
						c-0.065-0.03-0.13-0.061-0.194-0.094c-0.08-0.042-0.159-0.088-0.237-0.135c-0.079-0.048-0.153-0.102-0.231-0.152
						c-0.277-0.179,0.176,0.165-0.049-0.041c-0.168-0.154-0.333-0.307-0.485-0.478c-0.029-0.032-0.24-0.279-0.101-0.111
						c0.138,0.166-0.06-0.086-0.085-0.122c-0.126-0.185-0.24-0.378-0.341-0.577c-0.046-0.091-0.085-0.184-0.129-0.275
						c-0.044-0.099-0.035-0.079,0.025,0.06c-0.024-0.06-0.048-0.12-0.071-0.181c-0.085-0.222-0.162-0.447-0.236-0.674
						c-0.147-0.454-0.276-0.914-0.412-1.371c-0.306-1.027-0.66-2.06-1.221-2.98c-0.408-0.67-1.363-0.983-2.052-0.538
						C58.342,257.952,58.04,258.854,58.476,259.571L58.476,259.571z"/>
				</g>
				<g>
					<path style="fill:#5A8E8E;" d="M53.755,264.129c0.109,0.434,0.217,0.869,0.326,1.303c0.046,0.195,0.136,0.365,0.268,0.51
						c0.106,0.163,0.246,0.292,0.421,0.386c0.172,0.11,0.358,0.169,0.558,0.178c0.199,0.045,0.399,0.036,0.598-0.027
						c0.119-0.05,0.239-0.101,0.358-0.151c0.225-0.133,0.405-0.313,0.538-0.538c0.05-0.119,0.101-0.239,0.151-0.358
						c0.071-0.266,0.071-0.532,0-0.798c-0.109-0.434-0.217-0.869-0.326-1.303c-0.046-0.195-0.136-0.365-0.268-0.51
						c-0.106-0.163-0.246-0.292-0.421-0.386c-0.172-0.11-0.358-0.169-0.558-0.178c-0.199-0.045-0.399-0.036-0.598,0.027
						c-0.119,0.051-0.239,0.101-0.358,0.151c-0.225,0.133-0.405,0.313-0.538,0.538c-0.05,0.119-0.101,0.239-0.151,0.358
						C53.683,263.597,53.683,263.863,53.755,264.129L53.755,264.129z"/>
				</g>
				<g>
					<path style="fill:#5A8E8E;" d="M46.565,333.208c0.757,1.956,1.514,3.912,2.271,5.868c0.145,0.375,0.33,0.686,0.689,0.896
						c0.322,0.188,0.795,0.268,1.156,0.151c0.71-0.23,1.351-1.062,1.048-1.845c-0.757-1.956-1.514-3.912-2.271-5.868
						c-0.145-0.375-0.33-0.686-0.689-0.897c-0.321-0.188-0.795-0.268-1.156-0.151C46.903,331.592,46.261,332.424,46.565,333.208
						L46.565,333.208z"/>
				</g>
				<g>
					<path style="fill:#5A8E8E;" d="M45.985,358.637c1.346,1.659,3.04,3.058,4.909,4.092c0.687,0.38,1.668,0.19,2.052-0.538
						c0.372-0.705,0.195-1.647-0.538-2.052c-0.711-0.393-1.389-0.839-2.032-1.335c0.101,0.078,0.202,0.156,0.304,0.234
						c-0.951-0.741-1.814-1.586-2.574-2.522c-0.227-0.28-0.716-0.439-1.061-0.439c-0.368,0-0.807,0.163-1.061,0.439
						c-0.263,0.286-0.457,0.661-0.439,1.061C45.565,357.997,45.721,358.312,45.985,358.637L45.985,358.637z"/>
				</g>
			</g>
		</g>
		<g>
			<g>
				<path style="fill:#DBECF5;" d="M91.684,204.849c-5.694,9.855-9.488,20.777-11.024,32.058c-0.218,1.603,0.386,3.221,2.095,3.69
					c1.399,0.384,3.47-0.479,3.69-2.095c1.47-10.796,4.967-21.188,10.419-30.624C98.8,204.528,93.618,201.503,91.684,204.849
					L91.684,204.849z"/>
			</g>
			<g>
				<path style="fill:#DBECF5;" d="M95.188,112.557c-0.477,11.329,2.002,22.608,7.022,32.761c0.718,1.452,2.776,1.854,4.105,1.076
					c1.48-0.866,1.797-2.647,1.076-4.105c-4.556-9.214-6.635-19.476-6.203-29.733c0.068-1.62-1.428-3-3-3
					C96.506,109.557,95.256,110.932,95.188,112.557L95.188,112.557z"/>
			</g>
			<g>
				<path style="fill:#DBECF5;" d="M131.927,44.314c18.069-11.186,40.279-11.326,60.616-7.917c6.38,1.069,12.702,2.452,19,3.922
					c1.577,0.368,3.249-0.49,3.69-2.095c0.417-1.518-0.511-3.321-2.095-3.69c-22.074-5.152-45.484-9.262-67.735-2.701
					c-5.78,1.704-11.378,4.127-16.504,7.301C125.622,41.162,128.632,46.354,131.927,44.314L131.927,44.314z"/>
			</g>
			<g>
				<path style="fill:#DBECF5;" d="M386.202,79.923c19.963,0.405,39.598,6.929,55.87,18.498c4.298,3.056,8.533,6.484,11.099,11.18
					c1.852,3.389,7.035,0.365,5.181-3.028c-2.592-4.743-6.604-8.348-10.856-11.575c-4.204-3.191-8.675-6.035-13.329-8.521
					c-9.298-4.967-19.357-8.585-29.706-10.597c-6.015-1.169-12.133-1.833-18.259-1.957C382.339,73.844,382.34,79.844,386.202,79.923
					L386.202,79.923z"/>
			</g>
			<g>
				<path style="fill:#DBECF5;" d="M470.139,298.423c-6.066,13.652-16.146,24.776-26.828,34.999
					c-3.106,2.973-6.271,5.881-9.441,8.786c-1.195,1.095-1.11,3.132,0,4.243c1.19,1.19,3.044,1.098,4.243,0
					c11.242-10.301,22.577-20.81,30.991-33.645c2.37-3.615,4.461-7.404,6.216-11.355c0.657-1.48,0.43-3.223-1.076-4.105
					C472.966,296.599,470.801,296.935,470.139,298.423L470.139,298.423z"/>
			</g>
		</g>
		<g>
			<ellipse style="fill:#DBECF5;" cx="365.007" cy="456.313" rx="26.715" ry="8.345"/>
			<g>
				<polygon style="fill:#7F84FD;" points="403.118,462.448 360.848,460.949 380.325,442.815 422.594,444.314 				"/>
				<polygon style="fill:#6870E0;" points="360.848,460.949 360.848,465.147 403.736,466.668 422.594,448.658 422.594,444.314 
					403.118,462.448 				"/>
			</g>
			<g>
				<polygon style="fill:#E68DA8;" points="399.103,457.784 356.833,456.285 376.309,438.152 418.579,439.651 				"/>
				<polygon style="fill:#D67B99;" points="356.833,456.285 356.833,460.484 399.72,462.004 418.579,443.994 418.579,439.651 
					399.103,457.784 				"/>
			</g>
		</g>
		<g>
			<path style="fill:#38273F;" d="M203.694,219.581H72.437c-5.861,0-10.612-4.751-10.612-10.612v-87.273
				c0-5.861,4.751-10.612,10.612-10.612h131.257c5.861,0,10.612,4.751,10.612,10.612v87.273
				C214.306,214.829,209.555,219.581,203.694,219.581z"/>
			<path style="fill:#DBECF5;" d="M199.254,216.421H76.876c-5.861,0-10.612-4.751-10.612-10.612v-80.954
				c0-5.861,4.751-10.612,10.612-10.612h122.378c5.861,0,10.612,4.751,10.612,10.612v80.954
				C209.866,211.67,205.115,216.421,199.254,216.421z"/>
			<path style="fill:#7F84FD;" d="M208.095,119.476c-2.003-3.143-5.511-5.233-9.514-5.233H77.549c-4.003,0-7.511,2.09-9.514,5.233
				H208.095z"/>
			<path style="fill:#FFFFFF;" d="M77.395,116.951c0,0.64-0.519,1.16-1.16,1.16c-0.64,0-1.16-0.519-1.16-1.16
				c0-0.64,0.519-1.16,1.16-1.16C76.876,115.791,77.395,116.31,77.395,116.951z"/>
			<circle style="fill:#FFFFFF;" cx="80.572" cy="116.951" r="1.16"/>
			<circle style="fill:#FFFFFF;" cx="84.908" cy="116.951" r="1.16"/>
			<path style="fill:#FFFFFF;" d="M110.963,166.267H77.979c-1.818,0-3.293-1.474-3.293-3.293v-32.984
				c0-1.818,1.474-3.292,3.293-3.292h32.983c1.818,0,3.292,1.474,3.292,3.292v32.984
				C114.255,164.793,112.781,166.267,110.963,166.267z"/>
			<path style="fill:#FFFFFF;" d="M110.963,209.079H77.979c-1.818,0-3.293-1.474-3.293-3.292v-32.984
				c0-1.818,1.474-3.292,3.293-3.292h32.983c1.818,0,3.292,1.474,3.292,3.292v32.984
				C114.255,207.605,112.781,209.079,110.963,209.079z"/>
			<path style="fill:#2F2035;" d="M103.991,152.959c-0.871-1.045-2.438-1.865-3.757-2.417l0-0.001
				c-0.042-0.018-0.081-0.033-0.123-0.05c-0.107-0.044-0.213-0.088-0.316-0.128c-0.038-0.015-0.074-0.028-0.111-0.042
				c-0.111-0.043-0.22-0.085-0.324-0.123c-0.024-0.009-0.046-0.017-0.07-0.025c-0.112-0.041-0.221-0.08-0.323-0.115
				c-0.011-0.004-0.02-0.007-0.031-0.011c-0.11-0.038-0.214-0.073-0.309-0.104c-0.004-0.001-0.007-0.002-0.011-0.003
				c-0.405-0.133-0.66-0.203-0.66-0.203l-1.928-0.824l-0.009,0c0,0.002-0.001,0.006-0.001,0.008c0.009-0.123,0.01-0.202,0.01-0.202
				v-1.845c-0.02,0.006-0.045,0.006-0.065,0.012c0.876-0.252,1.493-0.881,1.945-2.388c0.067-0.224,0.123-0.43,0.178-0.633
				c-0.008,0.031-0.013,0.055-0.022,0.087c0.959,0.43,1.7-1.587,1.294-2.345c-0.146-0.274-0.305-0.383-0.452-0.418
				c0.054-0.138,0.113-0.264,0.159-0.421c0.636-2.168-0.434-3.47-0.896-3.903l0.201-1.626l3.218-0.667
				c0.166-0.034,0.193-0.259,0.04-0.332l-7.374-3.525c-0.048-0.023-0.104-0.023-0.152,0l-7.375,3.526
				c-0.102,0.049-0.117,0.163-0.071,0.245c0,1.394,0,2.787,0,4.181c0,0.2,0,0.399,0,0.599c0,0.029,0.015,0.045,0.028,0.064
				c-0.533,0.323-0.415,2.525-0.415,2.525h0.608l0.101-0.818l0.101,0.818h0.419c0,0-0.038-2.309-0.586-2.565
				c0.002-0.009,0.01-0.013,0.01-0.024c0-1.4,0-2.801,0-4.201c0-0.153,0-0.306,0-0.46l2.948,0.615l0.115,1.818
				c0,0-1.249,1.523-0.543,4.268c-0.081,0.068-0.161,0.157-0.238,0.301c-0.433,0.81,0.441,3.056,1.493,2.222
				c0-0.001-0.001-0.003-0.001-0.004c0.115,0.478,0.237,0.929,0.359,1.281c0.303,0.874,0.785,1.394,1.535,1.673
				c-0.003-0.001-0.006-0.001-0.009-0.002l-0.002,0v2.031l-1.882,0.829c-0.426,0.124-0.824,0.242-1.198,0.357
				c-0.17,0.052-0.318,0.101-0.478,0.152c-0.181,0.057-0.374,0.116-0.543,0.173l0,0.001c-4.773,1.584-4.675,2.621-5.693,6.797
				c-0.517,2.118-1.427,5.765-2.276,9.154h26.856C106.245,160.377,104.87,154.013,103.991,152.959z"/>
			<path style="fill:#FFFFFF;" d="M153.45,209.079h-32.983c-1.818,0-3.293-1.474-3.293-3.292v-32.984
				c0-1.818,1.474-3.292,3.293-3.292h32.983c1.818,0,3.293,1.474,3.293,3.292v32.984
				C156.742,207.605,155.268,209.079,153.45,209.079z"/>
			<path style="fill:#2F2035;" d="M146.478,195.771c-0.871-1.045-2.438-1.865-3.757-2.417l0-0.001
				c-0.042-0.018-0.081-0.033-0.123-0.05c-0.107-0.044-0.213-0.088-0.316-0.128c-0.038-0.015-0.073-0.028-0.111-0.043
				c-0.111-0.043-0.22-0.085-0.324-0.123c-0.024-0.009-0.046-0.017-0.07-0.025c-0.112-0.041-0.221-0.08-0.323-0.115
				c-0.011-0.004-0.02-0.007-0.031-0.011c-0.11-0.038-0.214-0.073-0.309-0.104c-0.004-0.001-0.007-0.002-0.011-0.003
				c-0.405-0.133-0.66-0.204-0.66-0.204l-1.928-0.824l-0.009,0c0,0.002-0.001,0.006-0.001,0.008c0.009-0.123,0.01-0.202,0.01-0.202
				v-1.845c-0.02,0.006-0.045,0.006-0.065,0.012c0.876-0.252,1.493-0.88,1.945-2.388c0.067-0.224,0.123-0.43,0.178-0.633
				c-0.008,0.031-0.013,0.055-0.022,0.087c0.959,0.43,1.7-1.587,1.294-2.345c-0.146-0.274-0.305-0.383-0.452-0.418
				c0.054-0.138,0.113-0.264,0.159-0.421c0.636-2.169-0.434-3.47-0.896-3.903l0.201-1.626l3.218-0.667
				c0.166-0.034,0.193-0.259,0.04-0.332l-7.374-3.525c-0.048-0.023-0.104-0.023-0.152,0l-7.375,3.526
				c-0.102,0.049-0.117,0.163-0.071,0.245c0,1.394,0,2.787,0,4.181c0,0.2,0,0.399,0,0.599c0,0.029,0.015,0.045,0.028,0.064
				c-0.534,0.323-0.415,2.525-0.415,2.525h0.608l0.101-0.817l0.101,0.817h0.419c0,0-0.038-2.309-0.586-2.565
				c0.002-0.009,0.01-0.013,0.01-0.024c0-1.4,0-2.801,0-4.201c0-0.153,0-0.306,0-0.46l2.948,0.615l0.115,1.818
				c0,0-1.249,1.523-0.543,4.268c-0.081,0.068-0.161,0.157-0.238,0.301c-0.434,0.81,0.441,3.056,1.493,2.222
				c0-0.001-0.001-0.003-0.001-0.004c0.115,0.478,0.237,0.929,0.359,1.281c0.303,0.874,0.785,1.394,1.535,1.673
				c-0.003-0.001-0.006-0.001-0.009-0.002l-0.002,0v2.031l-1.882,0.829c-0.426,0.124-0.824,0.242-1.198,0.357
				c-0.17,0.052-0.318,0.101-0.478,0.152c-0.181,0.057-0.374,0.117-0.543,0.173l0,0.001c-4.773,1.583-4.675,2.621-5.693,6.797
				c-0.517,2.118-1.427,5.765-2.276,9.154h26.856C148.732,203.189,147.357,196.825,146.478,195.771z"/>
			<path style="fill:#FFFFFF;" d="M153.45,166.267h-32.983c-1.818,0-3.293-1.474-3.293-3.293v-32.984
				c0-1.818,1.474-3.292,3.293-3.292h32.983c1.818,0,3.293,1.474,3.293,3.292v32.984
				C156.742,164.793,155.268,166.267,153.45,166.267z"/>
			<path style="fill:#FFFFFF;" d="M195.486,166.267h-32.984c-1.818,0-3.292-1.474-3.292-3.293v-32.984
				c0-1.818,1.474-3.292,3.292-3.292h32.984c1.818,0,3.292,1.474,3.292,3.292v32.984
				C198.778,164.793,197.304,166.267,195.486,166.267z"/>
			<path style="fill:#2F2035;" d="M146.478,152.959c-0.871-1.045-2.438-1.865-3.757-2.417l0-0.001
				c-0.042-0.018-0.081-0.033-0.123-0.05c-0.107-0.044-0.213-0.088-0.316-0.128c-0.038-0.015-0.073-0.028-0.111-0.042
				c-0.111-0.043-0.22-0.085-0.324-0.123c-0.024-0.009-0.046-0.017-0.07-0.025c-0.112-0.041-0.221-0.08-0.323-0.115
				c-0.011-0.004-0.02-0.007-0.031-0.011c-0.11-0.038-0.214-0.073-0.309-0.104c-0.004-0.001-0.007-0.002-0.011-0.003
				c-0.405-0.133-0.66-0.203-0.66-0.203l-1.928-0.824l-0.009,0c0,0.003-0.001,0.007-0.001,0.01c0.01-0.124,0.01-0.204,0.01-0.204
				v-0.21c2.19-0.295,3.443-1.052,3.443-1.052s0.062-2.804-0.011-5.245c0.003-0.102,0.004-0.203-0.01-0.295
				c-0.015-0.422-0.033-0.831-0.058-1.206c-0.171-2.596-1.225-3.848-1.225-3.848l0.201-1.626l3.218-0.667
				c0.166-0.034,0.193-0.259,0.04-0.332l-7.374-3.525c-0.048-0.023-0.104-0.023-0.152,0l-7.375,3.526
				c-0.102,0.049-0.117,0.163-0.071,0.245c0,1.394,0,2.787,0,4.181c0,0.2,0,0.399,0,0.599c0,0.029,0.015,0.045,0.028,0.064
				c-0.534,0.323-0.415,2.525-0.415,2.525h0.608l0.101-0.818l0.101,0.818h0.419c0,0-0.038-2.309-0.586-2.565
				c0.002-0.009,0.011-0.013,0.011-0.024c0-1.4,0-2.801,0-4.201c0-0.153,0-0.307,0-0.46l2.948,0.616l0.115,1.818
				c-1.932,3.624-1.507,10.42-1.507,10.42c1.496,0.589,2.865,0.905,4.101,1.056v0.293l-1.882,0.829
				c-0.426,0.124-0.824,0.242-1.198,0.357c-0.17,0.052-0.318,0.101-0.478,0.152c-0.181,0.057-0.374,0.116-0.543,0.173l0,0.001
				c-4.773,1.584-4.675,2.621-5.693,6.797c-0.517,2.118-1.427,5.765-2.276,9.154h26.856
				C148.733,160.377,147.357,154.013,146.478,152.959z"/>
			<path style="fill:#FFFFFF;" d="M195.486,209.079h-32.984c-1.818,0-3.292-1.474-3.292-3.292v-32.984
				c0-1.818,1.474-3.292,3.292-3.292h32.984c1.818,0,3.292,1.474,3.292,3.292v32.984
				C198.778,207.605,197.304,209.079,195.486,209.079z"/>
			<path style="fill:#2F2035;" d="M188.514,195.771c-0.871-1.045-2.438-1.865-3.757-2.417l0-0.001
				c-0.042-0.018-0.081-0.033-0.123-0.05c-0.107-0.044-0.213-0.088-0.316-0.128c-0.038-0.015-0.073-0.028-0.111-0.043
				c-0.111-0.043-0.22-0.085-0.324-0.123c-0.024-0.009-0.046-0.017-0.07-0.025c-0.112-0.041-0.221-0.08-0.323-0.115
				c-0.011-0.004-0.02-0.007-0.031-0.011c-0.11-0.038-0.214-0.073-0.308-0.104c-0.004-0.001-0.007-0.002-0.011-0.003
				c-0.405-0.133-0.66-0.204-0.66-0.204l-1.928-0.824l-0.009,0c0,0.003-0.001,0.007-0.001,0.01c0.009-0.124,0.01-0.204,0.01-0.204
				v-0.21c2.19-0.295,3.443-1.052,3.443-1.052s0.062-2.804-0.011-5.245c0.003-0.102,0.004-0.203-0.01-0.295
				c-0.015-0.422-0.033-0.831-0.058-1.206c-0.171-2.596-1.225-3.848-1.225-3.848l0.201-1.626l3.218-0.667
				c0.166-0.034,0.193-0.259,0.04-0.332l-7.374-3.525c-0.048-0.023-0.104-0.023-0.152,0l-7.375,3.526
				c-0.102,0.049-0.117,0.163-0.071,0.245c0,1.394,0,2.787,0,4.181c0,0.2,0,0.399,0,0.599c0,0.029,0.015,0.045,0.028,0.064
				c-0.533,0.323-0.415,2.525-0.415,2.525h0.608l0.101-0.817l0.101,0.817h0.419c0,0-0.038-2.309-0.586-2.565
				c0.002-0.009,0.01-0.013,0.01-0.024c0-1.4,0-2.801,0-4.201c0-0.153,0-0.307,0-0.46l2.948,0.616l0.115,1.818
				c-1.932,3.624-1.507,10.42-1.507,10.42c1.496,0.589,2.865,0.905,4.101,1.056v0.293l-1.882,0.829
				c-0.426,0.124-0.824,0.242-1.198,0.357c-0.17,0.052-0.318,0.101-0.478,0.152c-0.181,0.057-0.374,0.117-0.543,0.173l0,0.001
				c-4.773,1.583-4.675,2.621-5.693,6.797c-0.517,2.118-1.427,5.765-2.276,9.154h26.856
				C190.768,203.189,189.393,196.825,188.514,195.771z"/>
			<path style="fill:#2F2035;" d="M192.369,157.976c-0.467-2.894-2.591-4.774-7.441-7.48c0,0,0,0,0,0
				c-0.307-0.171-0.628-0.347-0.957-0.525c-0.251-0.136-0.516-0.277-0.78-0.418c-0.163-0.087-0.318-0.171-0.485-0.259c0,0,0,0,0,0
				c-0.479-0.253-0.975-0.512-1.497-0.782l0.128-2.453c-0.056,0.032-0.117,0.056-0.175,0.086c0.967-0.504,1.708-1.305,1.819-1.687
				c0.026-0.09,0.061-0.23,0.1-0.395c-0.003,0.014-0.008,0.034-0.011,0.048c0.042,0.021,0.086,0.042,0.133,0.061
				c1.423,0.564,1.853-2.255,1.047-2.712c0,0,0.529-1.53,0.225-3.159c-0.086-0.462-0.309-0.922-0.614-1.353
				c0.005,0.001,0.01,0.002,0.015,0.003l0.011-0.071l4.031-1.04c-0.04,1.525-0.08,3.05-0.12,4.576
				c-0.006,0.226-0.012,0.452-0.018,0.677c-0.001,0.019,0.012,0.028,0.017,0.043c-0.661,0.258-0.511,2.908-0.511,2.908h0.373h0.316
				l0.114-0.927l0.115,0.927h0.475c0,0-0.043-2.637-0.67-2.913c0.005-0.013,0.017-0.021,0.018-0.039
				c0.042-1.597,0.084-3.194,0.125-4.791c0.005-0.176,0.009-0.351,0.014-0.527l0.034-0.009c0.21-0.054,0.254-0.332,0.071-0.449
				l-7.662-4.892c-0.063-0.04-0.142-0.05-0.213-0.026l-8.176,2.792c-0.202,0.069-0.228,0.343-0.043,0.449l3.598,2.067v0.48
				c0,0-1.405,1.418-0.752,4.266l0.001,0.001c0.018-0.002,0.031,0.005,0.049,0.004c-0.134,0.007-0.279,0.039-0.443,0.132
				c-0.805,0.456-0.376,3.275,1.047,2.712c0.036,0.932,0.677,1.857,1.646,2.501c-0.024-0.016-0.052-0.026-0.075-0.042l-0.004,0
				l-0.066,0.658l0,0l-0.185,1.85c0,0-0.607,0.243-1.511,0.619c0,0,0,0,0,0c-0.178,0.074-0.368,0.154-0.567,0.238
				c-0.001,0.001-0.002,0.001-0.004,0.002c-0.228,0.096-0.469,0.198-0.718,0.305c-0.078,0.033-0.159,0.068-0.238,0.102
				c-0.167,0.072-0.335,0.144-0.508,0.219c-0.112,0.048-0.223,0.097-0.336,0.147c-0.094,0.041-0.185,0.081-0.28,0.122
				c0,0,0,0.001,0,0.001c-2.43,1.071-5.104,2.348-5.557,2.971c-0.394,0.542-2.03,6.731-3.686,13.272h29.73
				C192.93,162.495,192.568,159.206,192.369,157.976z"/>
			<path style="fill:#2F2035;" d="M107.855,200.769c-0.467-2.894-2.591-4.774-7.441-7.48c0,0,0,0,0,0
				c-0.243-0.136-0.502-0.276-0.758-0.416c0.061-1.743,0.145-4.277,0.202-6.398c0.35-0.633,0.377-1.624,0.049-2.061
				c0.009-0.474,0.014-0.88,0.014-1.181c0-2.427-0.477-3.578-0.477-3.578h0l3.961-1.022c-0.04,1.525-0.08,3.05-0.12,4.575
				c-0.006,0.226-0.012,0.452-0.018,0.677c0,0.019,0.011,0.028,0.017,0.043c-0.661,0.259-0.511,2.908-0.511,2.908h0.373h0.316
				l0.114-0.927l0.115,0.927h0.475c0,0-0.043-2.637-0.67-2.913c0.005-0.013,0.017-0.021,0.018-0.038
				c0.042-1.597,0.084-3.194,0.125-4.791c0.005-0.176,0.009-0.351,0.014-0.526l0.034-0.009c0.21-0.054,0.254-0.332,0.071-0.449
				l-7.662-4.892c-0.063-0.041-0.142-0.05-0.213-0.026l-8.176,2.792c-0.202,0.069-0.228,0.343-0.043,0.449l3.598,2.067v0.448
				c-0.313,0.52-0.888,1.804-1.248,4.519c-0.328,0.315-0.38,1.096-0.182,1.741c-0.055,0.713-0.098,1.493-0.119,2.36
				c-0.052,2.121-0.089,3.616-0.115,4.691c-0.045,0.019-0.093,0.04-0.138,0.06c-0.175,0.075-0.351,0.151-0.532,0.229
				c-0.109,0.047-0.218,0.095-0.329,0.144c-0.095,0.041-0.187,0.081-0.283,0.124c0,0,0,0.001,0,0.001
				c-2.43,1.071-5.104,2.348-5.558,2.971c-0.394,0.542-2.03,6.73-3.686,13.272h29.73
				C108.416,205.288,108.054,201.999,107.855,200.769z"/>
		</g>
		<polygon style="fill:#2F2035;" points="124.765,219.581 136.359,237.988 148.087,219.581 		"/>
	</g>
</g>
</svg>
